<?xml version="1.0" encoding="utf-8"?>
<!-- Generator: Adobe Illustrator 29.4.0, SVG Export Plug-In . SVG Version: 9.03 Build 0)  -->
<svg version="1.0" id="Layer_1" xmlns="http://www.w3.org/2000/svg" xmlns:xlink="http://www.w3.org/1999/xlink" x="0px" y="0px"
	 viewBox="0 0 221 220" style="enable-background:new 0 0 221 220;" xml:space="preserve">
<style type="text/css">
	.st0{fill:#01A76F;}
</style>
<g transform="translate(0.000000,220.000000) scale(0.100000,-0.100000)">
	<path class="st0" d="M915,2099c-491-151-676-217-718-257c-63-59-62-55-62-427c0-325,1-344,24-429c99-376,359-669,777-877
		c133-66,178-68,291-15c168,80,355,211,482,337c164,163,274,362,327,594c21,93,32,622,15,701c-20,90-55,125-163,169
		c-231,93-727,245-796,244C1066,2139,987,2121,915,2099z M1751,1614c15-15,34-43,40-61c23-69,7-89-399-501c-352-358-380-384-417-388
		c-52-7-57-3-282,216c-149,144-183,182-193,217c-11,36-10,46,6,79c33,68,110,102,167,73c12-6,81-70,153-141l131-130l314,322
		c173,176,325,328,339,336C1648,1658,1715,1648,1751,1614z"/>
</g>
</svg>
