<?xml version="1.0" encoding="utf-8"?>
<!-- Generator: Adobe Illustrator 29.4.0, SVG Export Plug-In . SVG Version: 9.03 Build 0)  -->
<svg version="1.0" id="Layer_1" xmlns="http://www.w3.org/2000/svg" xmlns:xlink="http://www.w3.org/1999/xlink" x="0px" y="0px"
	 viewBox="0 0 856 220" style="enable-background:new 0 0 856 220;" xml:space="preserve">
<style type="text/css">
	.st0{fill:#FFFFFF;}
	.st1{fill:#01A76F;}
	.st2{fill:#071D31;}
</style>
<rect x="39.6" y="42.3" class="st0" width="140.2" height="117.4"/>
<g transform="translate(0.000000,220.000000) scale(0.100000,-0.100000)">
	<path class="st1" d="M885,2099c-491-151-676-217-718-257c-63-59-62-55-62-427c0-325,1-344,24-429c99-376,359-669,777-877
		c133-66,178-68,291-15c168,80,355,211,482,337c164,163,274,362,327,594c21,93,32,622,15,701c-20,90-55,125-163,169
		c-231,93-727,245-796,244C1036,2139,957,2121,885,2099z M1721,1614c15-15,34-43,40-61c23-69,7-89-399-501c-352-358-380-384-417-388
		c-52-7-57-3-282,216c-149,144-183,182-193,217c-11,36-10,46,6,79c33,68,110,102,167,73c12-6,81-70,153-141l131-130l314,322
		c173,176,325,328,339,336C1618,1658,1685,1648,1721,1614z"/>
	<path class="st2" d="M5359,1685c-80-43-77-160,5-199c72-34,154-7,182,60c31,74-28,154-114,154C5406,1699,5373,1693,5359,1685z"/>
	<path class="st2" d="M2804,1645c-20-48-405-1076-411-1098c-5-15,5-17,110-17h115l18,52c9,29,30,90,46,136l30,82h228h228l47-132
		c26-73,50-136,54-141c11-11,221,4,221,17c0,6-57,157-126,336s-166,432-217,563l-92,237h-118h-118L2804,1645z M3019,1200
		c38-102,67-187,65-189s-71-5-152-7l-149-3l76,210c53,146,78,204,83,191C2947,1393,2981,1302,3019,1200z"/>
	<path class="st2" d="M4960,1484v-196l-36,27c-82,63-217,85-312,51c-100-36-189-129-233-245c-47-123-33-305,32-418
		c71-123,165-185,293-191c95-5,145,8,209,55l47,35v-36v-36h105h105v575v575h-105h-105V1484z M4870,1170c22-11,51-37,65-57
		c24-36,25-45,25-167c0-123-1-131-26-163c-49-65-136-93-217-69c-100,29-156,112-157,231c0,107,43,185,125,228
		C4728,1196,4822,1195,4870,1170z"/>
	<path class="st2" d="M5760,1470v-99l-67-3l-68-3v-90v-90l66-3l66-3l6-127c4-70,7-179,7-243c0-108,2-121,28-170c23-45,37-59,85-83
		c48-25,72-30,157-34c127-6,130-4,130,98c0,105,0,106-61,102c-62-5-104,12-118,46c-5,15-13,114-16,220c-6,181-5,192,12,193
		c10,1,54,2,98,3l80,1v90v90l-95,5c-81,4-95,7-96,23c0,9-1,53-2,97l-2,80h-105h-105V1470z"/>
	<path class="st2" d="M7113,1380c-143-30-253-139-253-250v-40h98h97l15,32c24,50,61,72,133,76c50,2,69-1,95-18c36-22,62-72,62-119
		v-29l-172-4c-153-3-179-7-223-27c-101-45-144-112-145-224c0-80,15-120,67-177c57-64,120-90,220-90c92,0,160,20,219,65l34,26v-35
		v-36h103h102l-3,287c-3,313-10,371-58,442c-32,49-87,88-151,107C7292,1385,7168,1392,7113,1380z M7360,842c0-51-4-62-27-84
		c-65-61-162-83-237-54c-53,20-74,59-60,108c18,63,78,82,262,87l62,1V842z"/>
	<path class="st2" d="M6623,1365c-32-14-122-99-125-119c-1-6-4,18-7,54l-6,65h-103h-103l7-342c4-189,8-357,9-373c1-17,2-50,3-75
		l2-45h100h101l-2,249c-2,240-1,251,21,296c37,76,137,126,210,105c19-6,40-10,45-10c15,0,6,193-9,202C6748,1385,6657,1380,6623,1365
		z"/>
	<path class="st2" d="M3512,1053c5-365,8-382,90-464c57-57,116-79,212-79c77,0,140,24,204,77l34,27l-3-45c-2-24,0-43,4-41
		c4,1,50,2,102,2h95v420v420h-99h-98l-8-277c-5-188-11-288-20-308c-43-101-190-124-262-41l-30,33l-6,189c-4,104-7,237-7,297v107
		h-106h-106L3512,1053z"/>
	<path class="st2" d="M7585,1360c-6-10,42-119,251-566l103-222l-63-158c-35-88-66-169-70-180c-6-21-4-21,95-20l101,1l35,85
		c197,484,422,1055,417,1059c-10,11-205,7-214-4c-11-13-200-512-200-527c0-23-17,7-40,72c-35,96-180,443-192,458
		C7795,1373,7594,1375,7585,1360z"/>
	<path class="st2" d="M5330,1353c1-5-1-178-3-385s-2-391,1-407l4-31h99h99v415v415h-100C5375,1360,5330,1357,5330,1353z"/>
</g>
</svg>
